<mxfile host="65bd71144e">
    <diagram id="JKIPco6Iux83tP9B0F8L" name="Page-1">
        <mxGraphModel dx="2343" dy="1023" grid="1" gridSize="10" guides="1" tooltips="1" connect="1" arrows="1" fold="1" page="1" pageScale="1" pageWidth="850" pageHeight="1100" math="0" shadow="0">
            <root>
                <mxCell id="0"/>
                <mxCell id="1" parent="0"/>
                <mxCell id="9" style="edgeStyle=none;html=1;entryX=0.25;entryY=0;entryDx=0;entryDy=0;" edge="1" parent="1" source="2" target="5">
                    <mxGeometry relative="1" as="geometry"/>
                </mxCell>
                <mxCell id="15" style="edgeStyle=none;html=1;entryX=0.703;entryY=0.044;entryDx=0;entryDy=0;entryPerimeter=0;" edge="1" parent="1" source="2" target="13">
                    <mxGeometry relative="1" as="geometry"/>
                </mxCell>
                <mxCell id="2" value="&lt;br&gt;&lt;span style=&quot;font-size: 19px;&quot;&gt;CHECK IF TAKEN&lt;/span&gt;" style="rounded=1;whiteSpace=wrap;html=1;" vertex="1" parent="1">
                    <mxGeometry y="230" width="120" height="60" as="geometry"/>
                </mxCell>
                <mxCell id="7" style="edgeStyle=none;html=1;entryX=1;entryY=0;entryDx=0;entryDy=0;" edge="1" parent="1" source="3" target="2">
                    <mxGeometry relative="1" as="geometry"/>
                </mxCell>
                <mxCell id="8" style="edgeStyle=none;html=1;entryX=0;entryY=0.25;entryDx=0;entryDy=0;" edge="1" parent="1" source="3" target="4">
                    <mxGeometry relative="1" as="geometry"/>
                </mxCell>
                <mxCell id="3" value="&lt;font style=&quot;font-size: 19px;&quot;&gt;CHANGED EMAIL FIELD&lt;/font&gt;" style="rounded=1;whiteSpace=wrap;html=1;" vertex="1" parent="1">
                    <mxGeometry x="300" y="40" width="120" height="60" as="geometry"/>
                </mxCell>
                <mxCell id="10" style="edgeStyle=none;html=1;entryX=0.5;entryY=0;entryDx=0;entryDy=0;" edge="1" parent="1" source="4" target="6">
                    <mxGeometry relative="1" as="geometry"/>
                </mxCell>
                <mxCell id="16" style="edgeStyle=none;html=1;" edge="1" parent="1" source="4" target="14">
                    <mxGeometry relative="1" as="geometry"/>
                </mxCell>
                <mxCell id="4" value="&lt;br&gt;&lt;span style=&quot;color: rgb(240, 240, 240); font-family: Helvetica; font-size: 19px; font-style: normal; font-variant-ligatures: normal; font-variant-caps: normal; font-weight: 400; letter-spacing: normal; orphans: 2; text-align: center; text-indent: 0px; text-transform: none; widows: 2; word-spacing: 0px; -webkit-text-stroke-width: 0px; background-color: rgb(42, 37, 47); text-decoration-thickness: initial; text-decoration-style: initial; text-decoration-color: initial; float: none; display: inline !important;&quot;&gt;CHANGED TEL FIELD&lt;/span&gt;&lt;br&gt;" style="rounded=1;whiteSpace=wrap;html=1;" vertex="1" parent="1">
                    <mxGeometry x="720" y="240" width="120" height="60" as="geometry"/>
                </mxCell>
                <mxCell id="28" style="edgeStyle=none;html=1;" edge="1" parent="1" source="5">
                    <mxGeometry relative="1" as="geometry">
                        <mxPoint x="-30" y="660" as="targetPoint"/>
                    </mxGeometry>
                </mxCell>
                <mxCell id="29" style="edgeStyle=none;html=1;entryX=0.278;entryY=0.067;entryDx=0;entryDy=0;entryPerimeter=0;" edge="1" parent="1" source="5" target="22">
                    <mxGeometry relative="1" as="geometry"/>
                </mxCell>
                <mxCell id="5" value="&lt;br&gt;&lt;span style=&quot;color: rgb(240, 240, 240); font-family: Helvetica; font-size: 19px; font-style: normal; font-variant-ligatures: normal; font-variant-caps: normal; font-weight: 400; letter-spacing: normal; orphans: 2; text-align: center; text-indent: 0px; text-transform: none; widows: 2; word-spacing: 0px; -webkit-text-stroke-width: 0px; background-color: rgb(42, 37, 47); text-decoration-thickness: initial; text-decoration-style: initial; text-decoration-color: initial; float: none; display: inline !important;&quot;&gt;CHANGED TEL FIELD&lt;/span&gt;&lt;br&gt;" style="rounded=1;whiteSpace=wrap;html=1;" vertex="1" parent="1">
                    <mxGeometry x="120" y="440" width="120" height="60" as="geometry"/>
                </mxCell>
                <mxCell id="19" style="edgeStyle=none;html=1;entryX=0.585;entryY=0.008;entryDx=0;entryDy=0;entryPerimeter=0;" edge="1" parent="1" source="6" target="17">
                    <mxGeometry relative="1" as="geometry"/>
                </mxCell>
                <mxCell id="20" style="edgeStyle=none;html=1;entryX=0.397;entryY=0.023;entryDx=0;entryDy=0;entryPerimeter=0;startArrow=none;" edge="1" parent="1" source="41" target="18">
                    <mxGeometry relative="1" as="geometry"/>
                </mxCell>
                <mxCell id="6" value="&lt;br&gt;&lt;span style=&quot;color: rgb(240, 240, 240); font-family: Helvetica; font-size: 19px; font-style: normal; font-variant-ligatures: normal; font-variant-caps: normal; font-weight: 400; letter-spacing: normal; orphans: 2; text-align: center; text-indent: 0px; text-transform: none; widows: 2; word-spacing: 0px; -webkit-text-stroke-width: 0px; background-color: rgb(42, 37, 47); text-decoration-thickness: initial; text-decoration-style: initial; text-decoration-color: initial; float: none; display: inline !important;&quot;&gt;CHECK IF &lt;br&gt;TAKEN&lt;/span&gt;&lt;br&gt;" style="rounded=1;whiteSpace=wrap;html=1;" vertex="1" parent="1">
                    <mxGeometry x="610" y="440" width="120" height="60" as="geometry"/>
                </mxCell>
                <mxCell id="13" value="&lt;span style=&quot;font-size: 19px;&quot;&gt;PRINT ITS TAKEN&lt;/span&gt;" style="ellipse;whiteSpace=wrap;html=1;" vertex="1" parent="1">
                    <mxGeometry x="-250" y="430" width="120" height="80" as="geometry"/>
                </mxCell>
                <mxCell id="14" value="&lt;span style=&quot;font-size: 19px;&quot;&gt;UPDATE DATABASE&lt;/span&gt;" style="ellipse;whiteSpace=wrap;html=1;" vertex="1" parent="1">
                    <mxGeometry x="950" y="430" width="120" height="80" as="geometry"/>
                </mxCell>
                <mxCell id="17" value="&lt;span style=&quot;font-size: 19px;&quot;&gt;PRINT ITS TAKEN&lt;/span&gt;" style="ellipse;whiteSpace=wrap;html=1;" vertex="1" parent="1">
                    <mxGeometry x="470" y="640" width="120" height="80" as="geometry"/>
                </mxCell>
                <mxCell id="18" value="&lt;span style=&quot;font-size: 19px;&quot;&gt;UPDATE DATABASE&lt;/span&gt;" style="ellipse;whiteSpace=wrap;html=1;" vertex="1" parent="1">
                    <mxGeometry x="760" y="640" width="120" height="80" as="geometry"/>
                </mxCell>
                <mxCell id="22" value="&lt;span style=&quot;font-size: 19px;&quot;&gt;UPDATE DATABASE&lt;/span&gt;" style="ellipse;whiteSpace=wrap;html=1;" vertex="1" parent="1">
                    <mxGeometry x="270" y="640" width="120" height="80" as="geometry"/>
                </mxCell>
                <mxCell id="26" style="edgeStyle=none;html=1;entryX=1;entryY=0;entryDx=0;entryDy=0;startArrow=none;" edge="1" parent="1" source="36" target="25">
                    <mxGeometry relative="1" as="geometry"/>
                </mxCell>
                <mxCell id="27" style="edgeStyle=none;html=1;entryX=0.274;entryY=0.02;entryDx=0;entryDy=0;entryPerimeter=0;" edge="1" parent="1" source="23" target="24">
                    <mxGeometry relative="1" as="geometry"/>
                </mxCell>
                <mxCell id="23" value="&lt;span style=&quot;font-size: 19px;&quot;&gt;CHECK IF TAKEN&lt;/span&gt;" style="rounded=1;whiteSpace=wrap;html=1;" vertex="1" parent="1">
                    <mxGeometry x="-110" y="660" width="120" height="60" as="geometry"/>
                </mxCell>
                <mxCell id="24" value="&lt;span style=&quot;font-size: 19px;&quot;&gt;UPDATE DATABASE&lt;/span&gt;" style="ellipse;whiteSpace=wrap;html=1;" vertex="1" parent="1">
                    <mxGeometry x="70" y="870" width="120" height="80" as="geometry"/>
                </mxCell>
                <mxCell id="25" value="&lt;span style=&quot;font-size: 19px;&quot;&gt;PRINT ITS TAKEN&lt;/span&gt;" style="ellipse;whiteSpace=wrap;html=1;" vertex="1" parent="1">
                    <mxGeometry x="-280" y="870" width="120" height="80" as="geometry"/>
                </mxCell>
                <mxCell id="30" value="NO" style="text;html=1;align=center;verticalAlign=middle;resizable=0;points=[];autosize=1;strokeColor=none;fillColor=none;fontSize=23;" vertex="1" parent="1">
                    <mxGeometry x="540" y="95" width="60" height="40" as="geometry"/>
                </mxCell>
                <mxCell id="31" value="YES" style="text;html=1;align=center;verticalAlign=middle;resizable=0;points=[];autosize=1;strokeColor=none;fillColor=none;fontSize=23;" vertex="1" parent="1">
                    <mxGeometry x="155" y="95" width="70" height="40" as="geometry"/>
                </mxCell>
                <mxCell id="32" value="NO" style="text;html=1;align=center;verticalAlign=middle;resizable=0;points=[];autosize=1;strokeColor=none;fillColor=none;fontSize=23;" vertex="1" parent="1">
                    <mxGeometry x="60" y="320" width="60" height="40" as="geometry"/>
                </mxCell>
                <mxCell id="33" value="YES" style="text;html=1;align=center;verticalAlign=middle;resizable=0;points=[];autosize=1;strokeColor=none;fillColor=none;fontSize=23;" vertex="1" parent="1">
                    <mxGeometry x="-145" y="330" width="70" height="40" as="geometry"/>
                </mxCell>
                <mxCell id="34" value="YES" style="text;html=1;align=center;verticalAlign=middle;resizable=0;points=[];autosize=1;strokeColor=none;fillColor=none;fontSize=23;" vertex="1" parent="1">
                    <mxGeometry x="45" y="530" width="70" height="40" as="geometry"/>
                </mxCell>
                <mxCell id="35" value="NO" style="text;html=1;align=center;verticalAlign=middle;resizable=0;points=[];autosize=1;strokeColor=none;fillColor=none;fontSize=23;" vertex="1" parent="1">
                    <mxGeometry x="230" y="550" width="60" height="40" as="geometry"/>
                </mxCell>
                <mxCell id="37" value="" style="edgeStyle=none;html=1;entryX=1;entryY=0;entryDx=0;entryDy=0;endArrow=none;" edge="1" parent="1" source="23" target="36">
                    <mxGeometry relative="1" as="geometry">
                        <mxPoint x="-71.06151085620195" y="730" as="sourcePoint"/>
                        <mxPoint x="-177.57359312880726" y="881.7157287525386" as="targetPoint"/>
                    </mxGeometry>
                </mxCell>
                <mxCell id="36" value="YES" style="text;html=1;align=center;verticalAlign=middle;resizable=0;points=[];autosize=1;strokeColor=none;fillColor=none;fontSize=23;" vertex="1" parent="1">
                    <mxGeometry x="-170" y="790" width="70" height="40" as="geometry"/>
                </mxCell>
                <mxCell id="40" value="NO" style="text;html=1;align=center;verticalAlign=middle;resizable=0;points=[];autosize=1;strokeColor=none;fillColor=none;fontSize=23;" vertex="1" parent="1">
                    <mxGeometry x="30" y="780" width="60" height="40" as="geometry"/>
                </mxCell>
                <mxCell id="42" value="" style="edgeStyle=none;html=1;entryX=0.397;entryY=0.023;entryDx=0;entryDy=0;entryPerimeter=0;endArrow=none;" edge="1" parent="1" source="6" target="41">
                    <mxGeometry relative="1" as="geometry">
                        <mxPoint x="700.5377094972068" y="509.9999999999998" as="sourcePoint"/>
                        <mxPoint x="797.6400000000003" y="651.8400000000001" as="targetPoint"/>
                    </mxGeometry>
                </mxCell>
                <mxCell id="41" value="NO" style="text;html=1;align=center;verticalAlign=middle;resizable=0;points=[];autosize=1;strokeColor=none;fillColor=none;fontSize=23;" vertex="1" parent="1">
                    <mxGeometry x="720" y="560" width="60" height="40" as="geometry"/>
                </mxCell>
                <mxCell id="44" value="YES" style="text;html=1;align=center;verticalAlign=middle;resizable=0;points=[];autosize=1;strokeColor=none;fillColor=none;fontSize=23;" vertex="1" parent="1">
                    <mxGeometry x="565" y="560" width="70" height="40" as="geometry"/>
                </mxCell>
                <mxCell id="45" value="YES" style="text;html=1;align=center;verticalAlign=middle;resizable=0;points=[];autosize=1;strokeColor=none;fillColor=none;fontSize=23;" vertex="1" parent="1">
                    <mxGeometry x="695" y="330" width="70" height="40" as="geometry"/>
                </mxCell>
                <mxCell id="46" value="NO" style="text;html=1;align=center;verticalAlign=middle;resizable=0;points=[];autosize=1;strokeColor=none;fillColor=none;fontSize=23;" vertex="1" parent="1">
                    <mxGeometry x="890" y="320" width="60" height="40" as="geometry"/>
                </mxCell>
            </root>
        </mxGraphModel>
    </diagram>
</mxfile>